<?xml version="1.0" encoding="utf-8"?>
<!-- Generator: Adobe Illustrator 27.5.0, SVG Export Plug-In . SVG Version: 6.00 Build 0)  -->
<svg version="1.1" id="Layer_1" xmlns="http://www.w3.org/2000/svg" xmlns:xlink="http://www.w3.org/1999/xlink" x="0px" y="0px"
	 viewBox="0 0 4000 4000" style="enable-background:new 0 0 4000 4000;" xml:space="preserve">
<g>
	<g>
		<rect style="fill:#FFFFFF;" width="4000" height="4000"/>
	</g>
	<g>
		<circle style="fill:#FF2D60;" cx="2000" cy="1920.804" r="1340.804"/>
	</g>
	<g>
		<g style="opacity:0.3;">
			<ellipse style="fill:#000072;" cx="2000" cy="3461.853" rx="1312.5" ry="68.147"/>
		</g>
		<g>
			<path style="fill:#000072;" d="M793.928,3423.335c100.505-5.082,201.013-8.132,301.519-10.994
				c50.251-1.182,100.505-2.664,150.759-3.596l150.759-2.705l150.757-1.715l75.381-0.818l75.378-0.286l150.759-0.542l150.759,0.284
				l150.759,0.439c50.251,0.111,100.505,0.79,150.759,1.157l150.759,1.355l150.757,2.189
				c201.013,3.219,402.024,7.393,603.037,15.231c5.728,0.223,10.188,5.048,9.966,10.775c-0.212,5.442-4.619,9.742-9.966,9.966
				c-201.013,7.838-402.024,12.012-603.037,15.231l-150.757,2.189l-150.759,1.355c-50.254,0.367-100.508,1.046-150.759,1.157
				L2000,3464.446l-150.759,0.286l-150.759-0.542l-75.378-0.286l-75.381-0.818l-150.757-1.715l-150.759-2.705
				c-50.254-0.933-100.508-2.416-150.759-3.596c-100.505-2.861-201.013-5.912-301.519-10.994
				c-5.728-0.289-10.134-5.167-9.846-10.895C784.353,3427.823,788.689,3423.618,793.928,3423.335z"/>
		</g>
		<g>
			<g>
				<path style="fill:#FA9B27;" d="M3071.25,2738.2c-15.95,179.95-196.95,270.1-202,272.55c-0.05,0-0.1,0.05-0.1,0.05
					c-95.05-8.75-154.45-56.2-191.1-117.75c-0.05,0-0.05,0-0.05,0c-0.15-0.3-0.35-0.55-0.5-0.85c-11.45-19.25-20.65-39.9-28-61.2
					c-1.85-5.2-3.55-10.5-5.15-15.8c-38.55-127.5-16.65-269.85-16.65-269.85c46.9-46.55,94.7-73.6,140.8-85.3
					C2938.8,2416.6,3085.2,2581.4,3071.25,2738.2z"/>
			</g>
			<g>
				<path style="fill:#FFFFFF;" d="M3071.25,2738.2c-15.95,179.95-196.95,270.1-202,272.55c6.05-6.3,324.25-339.7-100.75-550.7
					C2938.8,2416.6,3085.2,2581.4,3071.25,2738.2z"/>
			</g>
			<g>
				<path style="fill:#FFFFFF;" d="M2869.3,2718.95c-21.75,160.45-187.4,173.8-191.25,174.1c-0.05,0-0.05,0-0.05,0
					c-14.5-24.25-25.45-50.7-33.65-77.85C2781.4,2795.25,2869.3,2718.95,2869.3,2718.95z"/>
			</g>
			<g style="opacity:0.3;">
				<path style="fill:#000072;" d="M2918.987,2474.687c62.151,55.412,99.642,140.577,92.263,223.514
					c-15.95,179.95-196.95,270.1-202,272.55c-0.05,0-0.1,0.05-0.1,0.05c-33.075-3.045-61.744-10.863-86.729-22.243
					c35.543,33.146,83.12,56.387,146.729,62.243c0,0,0.05-0.05,0.1-0.05c5.05-2.45,186.05-92.6,202-272.55
					C3080.775,2631.14,3015.536,2520.372,2918.987,2474.687z"/>
			</g>
			<g style="opacity:0.3;">
				<path style="fill:#000072;" d="M2869.3,2718.95c-19.85,140.7-159.1,168.65-191.8,173.25c-11.45-19.25-20.65-39.9-28-61.2
					C2807.35,2829.3,2869.3,2718.95,2869.3,2718.95z"/>
			</g>
			<g>
				<path style="fill:#000072;" d="M2869.129,3028.925c-0.552,0-1.108-0.024-1.66-0.078c-78.032-7.192-140.2-39.775-184.771-96.846
					c-109.722-140.479-74.463-379.302-72.91-389.399c0.591-3.828,2.393-7.363,5.137-10.093
					c95.879-95.171,209.243-122.363,311.069-74.58c104.741,49.155,173.413,167.705,163.286,281.89
					c-16.899,190.518-204.287,283.433-212.256,287.295C2874.559,3028.309,2871.858,3028.925,2869.129,3028.925z M2644.793,2553.929
					c-4.57,36.851-24.697,239.209,66.499,355.869c37.188,47.573,89.067,75.303,154.268,82.471
					c27.295-14.746,173.936-100.918,187.656-255.654c8.838-99.57-51.138-202.993-142.603-245.918
					C2859.988,2466.952,2758.665,2443.998,2644.793,2553.929z"/>
			</g>
			<g>
				<path style="fill:#000072;" d="M2674.46,2867.933l7.329-0.741c2.617-0.326,5.281-0.582,7.932-0.984
					c5.303-0.773,10.623-1.627,15.891-2.686c10.522-2.208,20.957-4.713,31.018-8.193c20.21-6.667,39.126-16.26,55.823-28.94
					c16.741-12.675,30.867-28.673,43.132-46.858c2.954-4.617,6.106-9.204,8.767-14.127c2.969-4.777,5.522-9.816,8.252-14.873
					c1.448-2.502,2.561-5.133,3.843-7.738l3.85-7.875c2.493-5.317,4.773-10.771,7.554-16.227l0.049-0.095
					c0.374-0.735,1.274-1.027,2.009-0.652c0.481,0.245,0.771,0.719,0.811,1.222c0.439,6.06,0.713,12.197,0.593,18.334
					c-0.488,6.057-0.515,12.319-1.667,18.37l-1.487,9.199c-0.503,3.081-1.445,6.046-2.161,9.099
					c-1.453,6.102-3.555,12.034-5.769,17.975c-9.06,23.678-24.46,45.475-43.848,62.914c-19.475,17.378-42.703,30.386-67.141,38.401
					c-12.258,3.898-24.756,6.879-37.429,8.451c-6.328,0.839-12.683,1.436-19.099,1.575c-3.203,0.095-6.409,0.184-9.666,0.052
					c-3.364-0.106-6.245-0.221-10.295-0.645c-9.607-1.003-16.58-9.604-15.576-19.21c0.879-8.389,7.549-14.769,15.623-15.583
					L2674.46,2867.933z"/>
			</g>
		</g>
		<g>
			<g>
				<path style="fill:#FA9B27;" d="M2852.15,3428.2h-1704.3c-73.1-13.95-125.1-64.45-155.8-126.35
					c-50.55-101.9-43.6-234.7,21.35-286.65c104.45-83.6,217.8-10.2,217.8-10.2c42.6-96.45,127.75-108.75,127.75-108.75
					c-6.45-450,197.15-571.5,197.15-571.5h887.8c0,0,203.6,121.5,197.15,571.5c0,0,85.15,12.3,127.75,108.75
					c0,0,113.35-73.4,217.8,10.2C3091.05,3098.75,3045.55,3391.25,2852.15,3428.2z"/>
			</g>
			<g>
				<path style="fill:#FFFFFF;" d="M1349.65,3428.2h-201.8c-193.4-36.95-238.9-329.45-134.45-413c76.25-61,157.2-38.4,195.4-21.7
					l22.25,11.4l0.15,0.1C1231.2,3005,1434.7,3141.4,1349.65,3428.2z"/>
			</g>
			<g>
				<path style="fill:#FFFFFF;" d="M2277.85,3099.3c0,0-64.3,65.35-277.85,65.35s-277.85-65.35-277.85-65.35
					S1523.8,2784.2,1595,2463.75c9.85-44.45,24.9-89,46.4-132.85c0,0,74.3,61.4,358.6,61.4s358.6-61.4,358.6-61.4
					c3.95,8.05,7.7,16.15,11.2,24.2c16.55,38.1,28.5,76.6,36.6,115C2473.6,2788.35,2277.85,3099.3,2277.85,3099.3z"/>
			</g>
			<g>
				<path style="fill:#FFFFFF;" d="M2650.35,3428.2h201.8c193.4-36.95,238.9-329.45,134.45-413c-76.25-61-157.2-38.4-195.4-21.7
					l-22.25,11.4l-0.15,0.1C2768.8,3005,2565.3,3141.4,2650.35,3428.2z"/>
			</g>
			<g style="opacity:0.3;">
				<path style="fill:#000072;" d="M2630.2,3315.15c0,0-103.75,52-630.2,52s-630.2-52-630.2-52
					c-260.85,104.45-377.75-13.3-377.75-13.3c30.7,61.9,82.7,112.4,155.8,126.35H2000h852.15c73.1-13.95,125.1-64.45,155.8-126.35
					C3007.95,3301.85,2891.05,3419.6,2630.2,3315.15z"/>
			</g>
			<g>
				<path style="fill:#000072;" d="M2777.109,3021.083l-3.064,1.893c-1.116,0.671-2.261,1.438-3.416,2.236
					c-2.297,1.56-4.612,3.092-6.902,4.788c-4.653,3.19-9.043,6.868-13.579,10.321c-8.801,7.303-17.334,14.996-25.349,23.225
					c-15.991,16.477-30.381,34.686-41.912,54.734c-11.353,20.055-21.597,41.206-27.722,63.933
					c-4.175,11.086-6.238,22.721-9.832,34.282c-1.914,5.775-2.646,11.743-4.194,17.681c-1.428,5.957-2.944,11.964-4.89,18.057
					l-0.071,0.219c-0.413,1.295-1.799,2.01-3.096,1.597c-0.864-0.276-1.47-0.989-1.655-1.815c-1.365-6.183-2.3-12.45-3.147-18.767
					c-0.479-3.163-0.742-6.327-1.104-9.51l-0.493-4.783l0.066-4.758c0.059-6.36,0.225-12.76,0.608-19.16
					c0.02-6.461,1.257-12.753,2.366-19.087c1.223-6.304,2.168-12.714,3.87-18.929l5.547-18.585
					c1.621-6.304,4.424-12.168,6.743-18.242c2.468-6.012,4.819-12.102,8.013-17.781c11.282-23.519,26.531-45.127,44.231-64.37
					c4.307-4.932,9.197-9.31,13.787-13.983c4.79-4.468,9.827-8.683,14.849-12.91c5.183-4.061,10.381-8.081,15.93-11.754
					c2.678-1.919,5.544-3.693,8.438-5.422c1.418-0.878,2.874-1.748,4.429-2.595c1.526-0.85,2.954-1.671,4.939-2.677
					c8.909-4.51,19.788-0.945,24.297,7.963c4.265,8.425,1.309,18.612-6.56,23.508L2777.109,3021.083z"/>
			</g>
			<g>
				<path style="fill:#000072;" d="M1239.502,2988.917c1.985,1.006,3.413,1.827,4.939,2.677c1.555,0.847,3.01,1.718,4.429,2.595
					c2.893,1.73,5.759,3.503,8.438,5.422c5.549,3.673,10.747,7.693,15.93,11.754c5.022,4.227,10.059,8.442,14.849,12.91
					c4.59,4.673,9.48,9.052,13.787,13.983c17.7,19.243,32.949,40.851,44.231,64.37c3.193,5.679,5.544,11.769,8.013,17.781
					c2.319,6.074,5.122,11.938,6.743,18.242l5.547,18.585c1.702,6.216,2.646,12.626,3.87,18.929
					c1.108,6.334,2.346,12.626,2.366,19.087c0.383,6.4,0.549,12.8,0.608,19.16l0.066,4.758l-0.493,4.783
					c-0.361,3.184-0.625,6.348-1.104,9.51c-0.847,6.317-1.782,12.584-3.147,18.767c-0.293,1.328-1.609,2.167-2.937,1.874
					c-0.886-0.195-1.555-0.846-1.814-1.652l-0.071-0.222c-1.946-6.093-3.462-12.1-4.89-18.057
					c-1.548-5.938-2.28-11.906-4.194-17.681c-3.594-11.561-5.657-23.196-9.832-34.282c-6.125-22.727-16.37-43.878-27.722-63.933
					c-11.531-20.048-25.92-38.257-41.912-54.734c-8.015-8.229-16.548-15.922-25.349-23.225c-4.536-3.453-8.926-7.131-13.579-10.321
					c-2.29-1.696-4.604-3.228-6.902-4.788c-1.155-0.798-2.3-1.565-3.416-2.236l-3.064-1.893l-1.062-0.656
					c-8.494-5.25-11.123-16.392-5.874-24.885C1220.92,2987.509,1231.221,2984.756,1239.502,2988.917z"/>
			</g>
			<g>
				<path style="fill:#000072;" d="M2852.151,3446.312H1147.85c-1.143,0-2.28-0.107-3.399-0.322
					c-93.945-17.954-166.338-94.463-193.647-204.658c-24.653-99.463-4.043-196.025,51.279-240.288
					c87.934-70.352,182.505-38.794,221.069-20.728c36.001-66.445,90.811-90.283,117.539-98.276
					c-2.036-443.438,197.544-567.69,206.133-572.813c2.803-1.675,6.006-2.559,9.272-2.559h887.808c3.267,0,6.47,0.884,9.272,2.559
					c8.589,5.122,208.164,129.375,206.133,572.813c26.729,7.993,81.538,31.831,117.534,98.276
					c38.56-18.052,133.13-49.624,221.074,20.728c55.322,44.263,75.933,140.825,51.279,240.288
					c-27.31,110.195-99.702,186.704-193.647,204.658C2854.432,3446.205,2853.294,3446.312,2852.151,3446.312z M1149.607,3410.111
					h1700.786c78.896-15.825,140.015-82.041,163.667-177.485c20.981-84.663,5.044-168.271-38.76-203.311
					c-92.686-74.165-192.505-11.797-196.699-9.097c-4.453,2.852-9.946,3.623-15,2.1c-5.059-1.523-9.219-5.171-11.357-10
					c-37.773-85.459-110.767-97.69-113.853-98.169c-8.921-1.382-15.547-9.136-15.42-18.159
					c3.232-226.392-48.354-365.581-92.202-442.48c-39.541-69.355-80.02-101.772-92.393-110.64h-876.763
					c-12.295,8.809-52.808,41.226-92.388,110.64c-43.848,76.899-95.434,216.089-92.197,442.48
					c0.127,9.092-6.509,16.87-15.508,18.174c-2.998,0.464-75.991,12.695-113.769,98.154c-2.144,4.849-6.304,8.511-11.382,10.024
					c-5.093,1.519-10.566,0.723-15.015-2.148c-4.16-2.666-103.95-65.039-196.655,9.121c-43.804,35.039-59.741,118.647-38.76,203.311
					C1009.593,3328.07,1070.711,3394.286,1149.607,3410.111z"/>
			</g>
			<g>
				<g>
					
						<ellipse transform="matrix(0.9567 -0.2912 0.2912 0.9567 -894.7636 478.4081)" style="fill:#FF699F;" cx="1160.028" cy="3245.533" rx="64.319" ry="75.518"/>
				</g>
				<g>
					
						<ellipse transform="matrix(0.9567 -0.2912 0.2912 0.9567 -876.1745 444.0301)" style="fill:#FF699F;" cx="1053.807" cy="3165.869" rx="33.297" ry="39.095"/>
				</g>
				<g>
					
						<ellipse transform="matrix(0.9567 -0.2912 0.2912 0.9567 -856.9948 489.2486)" style="fill:#FF699F;" cx="1215.351" cy="3124.08" rx="33.297" ry="39.095"/>
				</g>
				<g>
					
						<ellipse transform="matrix(0.9567 -0.2912 0.2912 0.9567 -854.9912 460.7841)" style="fill:#FF699F;" cx="1120.753" cy="3103.189" rx="33.297" ry="39.095"/>
				</g>
			</g>
			<g>
				<g>
					
						<ellipse transform="matrix(0.2912 -0.9567 0.9567 0.2912 -1082.2662 5018.0747)" style="fill:#FF699F;" cx="2845.213" cy="3239.383" rx="73.927" ry="62.964"/>
				</g>
				<g>
					
						<ellipse transform="matrix(0.2912 -0.9567 0.9567 0.2912 -933.9472 5062.2861)" style="fill:#FF699F;" cx="2949.197" cy="3161.396" rx="38.271" ry="32.596"/>
				</g>
				<g>
					
						<ellipse transform="matrix(0.2912 -0.9567 0.9567 0.2912 -1006.9061 4881.9976)" style="fill:#FF699F;" cx="2791.056" cy="3120.487" rx="38.271" ry="32.596"/>
				</g>
				<g>
					
						<ellipse transform="matrix(0.2912 -0.9567 0.9567 0.2912 -921.7189 4956.0586)" style="fill:#FF699F;" cx="2883.661" cy="3100.037" rx="38.271" ry="32.596"/>
				</g>
			</g>
		</g>
		<g>
			<g>
				<path style="fill:#FA9B27;" d="M3142.1,1986.3c0.2,175.1-83,305.2-160.3,388.2c-67,72.05-129.65,108.7-129.65,108.7
					c-32.05-116.15-75.1-191.6-111.1-238.65c-36.5-47.55-65.75-66.05-69.1-68.1c-0.1-0.1-0.25-0.15-0.35-0.2
					c3.4-7.15,6.75-14.3,9.95-21.4c10.75-23.5,20.75-47,30.45-70.1c31.25-74.1,59.75-143.7,100.6-194.95
					c35.6-44.75,80.65-75.55,145.1-83.2c91-10.75,137.3,34.7,160.65,78.75c2.55,4.8,4.85,9.6,6.85,14.3
					C3137,1926.95,3142.1,1956.6,3142.1,1986.3z"/>
			</g>
			<g>
				<path style="fill:#FFFFFF;" d="M3142.1,1986.3c0.2,175.1-83,305.2-160.3,388.2c-42.5-174.45-168.45-253.8-269.8-289.75
					c58.5-138.75,107.4-261.75,245.7-278.15c100.95-11.95,146.9,45.3,167.5,93.05C3137,1926.95,3142.1,1956.6,3142.1,1986.3z"/>
			</g>
			<g>
				<g>
					
						<ellipse transform="matrix(0.7938 -0.6081 0.6081 0.7938 -634.7922 2210.5486)" style="fill:#FF699F;" cx="2942.791" cy="2041.486" rx="55.291" ry="55.291"/>
				</g>
				<g>
					
						<ellipse transform="matrix(0.3247 -0.9458 0.9458 0.3247 125.9776 4059.616)" style="fill:#FF699F;" cx="2905.805" cy="1941.59" rx="33.607" ry="28.624"/>
				</g>
				<g>
					
						<ellipse transform="matrix(0.3247 -0.9458 0.9458 0.3247 166.7213 4221.2202)" style="fill:#FF699F;" cx="3039.384" cy="1993.859" rx="33.607" ry="28.624"/>
				</g>
				<g>
					
						<ellipse transform="matrix(0.3247 -0.9458 0.9458 0.3247 188.1777 4126.8584)" style="fill:#FF699F;" cx="2984.013" cy="1931.654" rx="33.607" ry="28.624"/>
				</g>
			</g>
			<g style="opacity:0.3;">
				<path style="fill:#000072;" d="M3142.1,1986.3c0.2,175.1-83,305.2-160.3,388.2c-67,72.05-129.65,108.7-129.65,108.7
					c-32.05-116.15-75.1-191.6-111.1-238.65c-36.5-47.55-65.75-66.05-69.1-68.1c-0.1-0.1-0.25-0.15-0.35-0.2
					c3.4-7.15,6.75-14.3,9.95-21.4c34.886,13.468,77.228,35.116,118.932,69.644c71.763,59.414,179.972,39.301,226.296-41.532
					c50.217-87.627,96.154-196.762,91.572-297.611c2.55,4.8,4.85,9.6,6.85,14.3C3137,1926.95,3142.1,1956.6,3142.1,1986.3z"/>
			</g>
			<g>
				<path style="fill:#000072;" d="M2852.142,2501.317c-2.31,0-4.624-0.439-6.816-1.333c-5.21-2.119-9.141-6.538-10.635-11.958
					c-63.228-229.478-171.133-295.508-172.212-296.147c-8.066-4.771-11.24-14.956-7.207-23.418
					c15.908-33.379,30.156-67.212,43.936-99.927c56.885-135.063,110.615-262.632,256.343-279.902
					c86.777-10.298,152.944,26.597,186.289,103.853c12.163,28.174,18.35,59.736,18.384,93.809
					c0.171,174.516-81.104,304.585-149.316,382.969c-73.638,84.624-146.553,127.778-149.619,129.575
					C2858.475,2500.482,2855.315,2501.317,2852.142,2501.317z M2694.456,2170.179c32.246,24.985,113.374,102.754,168.267,284.438
					c26.035-18.159,74.121-55.19,121.68-110.044c92.769-107.012,139.746-227.539,139.619-358.242
					c-0.029-29.121-5.22-55.869-15.42-79.497c-27.222-63.066-77.314-90.752-148.794-82.256
					c-124.805,14.795-172.271,127.5-227.236,258.003C2720.516,2111.205,2708.108,2140.668,2694.456,2170.179z"/>
			</g>
		</g>
		<g>
			<path style="fill:#08B9FF;" d="M2802.8,2906.25c0.05,0.15,0.05,0.2,0.05,0.2c-11.85,10.85-24.1,21.05-36.7,30.7
				c-85.2,65.3-185.6,104.35-273.15,127.75c-13.7,3.6-27.05,6.9-40,9.8c-26.35,5.95-51,10.45-72.95,13.9
				c-61.5,9.6-102.2,10.7-102.2,10.7l-31-174.8L2175,2519.7l-19.35-109.1c31.9-5.15,62.25-11.3,91.15-18.3
				c44.55-10.75,85.5-23.45,123-37.2c104.1-38.1,181.05-84.45,231.2-120.4c0,0,0.05-0.05,0.1-0.15c47.05-33.7,70.5-58.3,70.5-58.3
				c0.1,0.05,0.25,0.1,0.35,0.2c30.85,14.7,56.4,34.05,77.6,55.9c44.25,45.6,69.5,101.95,83.85,149.65
				c17.05,56.65,18.75,101.2,18.75,101.2c-29.1,20.1-58.5,36.9-83.35,49.85c-37.4,19.5-64.5,30.2-64.5,30.2
				c60.9,115.1,97.05,334.1,98.5,342.9C2802.8,2906.2,2802.8,2906.2,2802.8,2906.25z"/>
		</g>
		<g>
			<path style="fill:#FFFFFF;" d="M2380.05,3088.6c-61.5,9.6-102.2,10.7-102.2,10.7l-122.2-688.7c31.9-5.15,62.25-11.3,91.15-18.3
				l0.05,0.05C2246.85,2392.35,2292.3,2578.05,2380.05,3088.6z"/>
		</g>
		<g>
			<path style="fill:#FFFFFF;" d="M2802.85,2906.45c-11.85,10.85-24.1,21.05-36.7,30.7c-2.7-7.75-5.9-16.1-9.1-24
				c-3.7-9.05-7.6-18.05-11.75-26.9c-8.25-17.7-17.3-34.9-27.65-50.7c-10.25-15.7-22-30.4-34.75-40c-6.3-4.85-12.75-8-18.5-9.3
				c-5.75-1.3-10.95-0.85-16.8,1.5c-5.8,2.2-12.2,6.65-17.9,12.15c-5.35,5.15-9.05,10.8-10.7,16.6c-3.6,11.3,0.25,23.8,8.35,34.9
				c8.2,11.05,20.1,19.55,32.95,22c6.5,1.2,13.8,0.95,22-1.8c8.2-2.7,16.8-7.85,25.9-14.25c0.5-0.4,1.25-0.25,1.65,0.25
				c0.15,0.25,0.2,0.55,0.2,0.8c-1.05,11.25-5.2,22.45-13.2,32.2c-7.85,9.7-20.25,17.35-34.1,19.85c-13.85,2.6-28.35,0.35-40.8-5.1
				c-12.5-5.4-23.5-13.75-32.05-24.25c-8.6-10.45-14.9-23.15-17.7-37.15c-2.75-13.95-1.65-29.2,3.5-42.65
				c5-13.55,13.4-24.95,22.8-33.85c8.95-8.45,19.3-16.35,32.5-21.6c6.55-2.6,13.7-4.45,21.1-5.1c7.4-0.65,14.9-0.1,21.95,1.45
				c14.15,3.15,26.15,9.8,36,17.25c19.75,15.1,33.4,33.15,45.5,51.3c11.9,18.3,21.95,37.2,30.85,56.4c4.4,9.65,8.6,19.35,12.5,29.15
				c1.3,3.3,2.6,6.6,3.9,9.85c0,0.05,0,0.05,0,0.1C2802.85,2906.4,2802.85,2906.45,2802.85,2906.45z"/>
		</g>
		<g>
			<path style="fill:#FFFFFF;" d="M2550.9,2950.9c-3.1,11.4-9.45,22.5-18.8,30.5c-9.25,8.05-21.2,12.3-32.1,12.35
				c-11,0.1-20.9-3.2-29.1-8.6c-0.45-0.3-0.6-0.95-0.3-1.4c0.15-0.2,0.35-0.35,0.6-0.45c9.3-2.7,17.5-5.7,23.8-9.85
				c6.35-4.05,10.55-8.85,13.25-13.95c5.35-10.05,6.05-22.8,3-34.4c-3.15-11.55-9.55-21-19.15-24.75c-4.85-2-10.7-2.6-17.1-1.75
				c-6.9,0.9-13.4,2.8-18.05,5.5c-4.8,2.75-7.95,6-10.2,10.65c-2.25,4.6-3.65,10.7-3.8,17.65c-0.4,13.9,3.15,29.9,8.25,45.45
				c5.1,15.65,11.9,31.2,19.4,46.45c6.75,13.75,14.45,27.75,22.4,40.6c-13.7,3.6-27.05,6.9-40,9.8c-6.35-10.8-12.15-21.6-17.8-32.85
				c-8.2-16.55-15.6-33.65-21.5-51.8c-5.75-18.1-10.6-37.2-10.1-58.9c0.35-10.75,2.35-22.55,7.9-33.9c2.8-5.6,6.55-11.05,11-15.7
				c4.5-4.7,9.65-8.55,15-11.55c10.8-6.15,21.8-8.85,32.45-10.35c11.15-1.5,23.5-1,35.45,2.95c11.95,3.9,22.9,11.45,30.9,20.95
				c8,9.5,13.2,20.75,15.6,32.3C2554.4,2927.4,2554.05,2939.4,2550.9,2950.9z"/>
		</g>
		<g>
			<path style="fill:#FFFFFF;" d="M2852.15,2483.2c-29.1,20.1-58.5,36.9-83.35,49.85c-50.65-244.3-167.8-298.35-167.8-298.35
				s0.05-0.05,0.1-0.15c47.05-33.7,70.5-58.3,70.5-58.3C2843.55,2258.2,2852.15,2483.2,2852.15,2483.2z"/>
		</g>
		<g style="opacity:0.3;">
			<path style="fill:#000072;" d="M2802.8,2906.25c0.05,0.15,0.05,0.2,0.05,0.2c-11.85,10.85-24.1,21.05-36.7,30.7
				c-85.2,65.3-185.6,104.35-273.15,127.75c-13.7,3.6-27.05,6.9-40,9.8c-26.35,5.95-51,10.45-72.95,13.9
				c-61.5,9.6-102.2,10.7-102.2,10.7l-31-174.8c0,0,228.95,44.5,402.65-54.7c0,0-77.539,7.206-200.777-12.275
				c-8.874-1.403-9.668-13.89-1.015-16.305c29.46-8.224,72.941-22.163,119.259-43.207c64.316-29.223,72.53-119.021,13.158-157.302
				c-1.083-0.698-2.184-1.39-3.304-2.073c-31.071-18.971-29.069-64.68,3.46-81.025c87.751-44.094,204.004-110.807,253.12-175.612
				c17.05,56.65,18.75,101.2,18.75,101.2c-29.1,20.1-58.5,36.9-83.35,49.85c-37.4,19.5-64.5,30.2-64.5,30.2
				c60.9,115.1,97.05,334.1,98.5,342.9C2802.8,2906.2,2802.8,2906.2,2802.8,2906.25z"/>
		</g>
		<g>
			<path style="fill:#000072;" d="M2277.854,3117.386c-8.75,0-16.279-6.274-17.817-14.937l-122.231-688.662
				c-0.85-4.78,0.259-9.697,3.066-13.652c2.813-3.955,7.095-6.616,11.885-7.383c335.835-53.96,504.082-227.241,505.742-228.984
				c5.4-5.669,13.833-7.222,20.898-3.857c179.78,85.693,190.464,312.983,190.83,322.617c0.239,6.182-2.705,12.061-7.793,15.581
				c-52.91,36.567-106.294,62.227-133.374,74.253c57.397,121.694,90.234,322.29,91.67,331.182c0.972,6.021-1.152,12.124-5.654,16.24
				c-204.067,186.704-523.252,197.241-536.738,197.598C2278.177,3117.386,2278.016,3117.386,2277.854,3117.386z M2176.644,2425.443
				l116.235,654.883c65.171-4.551,321.035-31.587,490.454-180.693c-7.744-44.131-42.217-228.022-95.049-327.935
				c-2.407-4.546-2.759-9.907-0.977-14.731s5.532-8.667,10.317-10.562c0.698-0.278,68.218-27.246,135.669-72.266
				c-4.038-41.689-28.013-205.527-158.301-275.874C2634.642,2236.146,2471.165,2373.705,2176.644,2425.443z"/>
		</g>
		<g>
			<path style="fill:#000072;" d="M2362.21,3091.659c-86.553-503.726-132.505-693.159-132.959-695.015l35.166-8.613
				c0.454,1.865,46.641,192.158,133.477,697.495L2362.21,3091.659z"/>
		</g>
		<g>
			<path style="fill:#000072;" d="M2751.077,2536.713c-47.808-230.527-156.685-285.127-157.778-285.654l15.293-32.813
				c5.117,2.363,126.021,60.776,177.935,311.113L2751.077,2536.713z"/>
		</g>
		<g>
			<path style="fill:#000072;" d="M2710.117,2580.374c-7.578,1.967-15.159,3.58-22.834,5.057
				c-7.637,1.549-15.347,2.877-23.103,4.048c-7.732,1.237-15.542,2.233-23.411,3.019c-7.908,0.645-15.823,1.285-23.916,1.088
				c-1.594-0.039-2.856-1.365-2.817-2.959c0.024-1.023,0.579-1.909,1.394-2.402l0.039-0.023c6.814-4.053,13.665-7.788,20.498-11.584
				c6.87-3.666,13.752-7.273,20.684-10.726c6.909-3.511,13.845-6.94,20.828-10.212c6.948-3.345,13.972-6.595,20.974-9.575
				c9.226-3.925,19.885,0.37,23.811,9.595c3.926,9.224-0.371,19.883-9.595,23.809
				C2711.863,2579.85,2710.942,2580.154,2710.117,2580.374z"/>
		</g>
		<g>
			<g>
				<path style="fill:#08B9FF;" d="M1844.35,2410.6l-91.2,513.9l-31,174.8c0,0-1-0.05-2.9-0.1c-0.35,0-0.8-0.05-1.25-0.05
					c-0.35-0.05-0.75-0.05-1.15-0.05c-0.6-0.05-1.3-0.1-2-0.15h-0.3c-0.5,0-1.05-0.05-1.6-0.1c-0.8,0-1.65-0.05-2.5-0.1
					c-1.35-0.1-2.85-0.2-4.4-0.3c-0.3,0-0.6-0.05-0.9-0.05c-1.1-0.1-2.25-0.15-3.45-0.25c-0.65-0.05-1.3-0.1-2-0.15
					c-1.4-0.1-2.8-0.2-4.3-0.35c-0.45-0.05-0.85-0.05-1.3-0.1c-2.25-0.2-4.6-0.4-7.05-0.6c-2.05-0.2-4.2-0.4-6.45-0.6
					c-1.75-0.2-3.55-0.35-5.4-0.55c-1.4-0.15-2.85-0.3-4.3-0.45c-2.55-0.3-5.2-0.55-7.9-0.85c-3.45-0.45-7.05-0.9-10.8-1.35
					c-3.3-0.4-6.7-0.85-10.2-1.35c-2.2-0.3-4.4-0.6-6.65-0.9c-2.45-0.35-4.95-0.7-7.5-1.1c-2.6-0.4-5.2-0.8-7.9-1.2
					c-2.75-0.45-5.55-0.9-8.35-1.35c-19.8-3.25-41.55-7.35-64.6-12.55c-7.15-1.6-14.4-3.3-21.75-5.15c-6-1.5-12.05-3.05-18.2-4.7
					c-10.95-2.9-22.1-6.05-33.35-9.5c-79.05-24-165.25-61.05-239.85-118.2c-12.6-9.65-24.85-19.85-36.7-30.7c0,0,0-0.05,0.05-0.2
					c0-0.05,0-0.05,0-0.1c1.45-8.8,37.6-227.8,98.5-342.9c0,0,10.65-23.35,30.25-56.4c36.9-62.45,105.65-159.55,194.35-199.2
					C1601.95,2348.75,1709.9,2389,1844.35,2410.6z"/>
			</g>
			<g>
				<path style="fill:#FFFFFF;" d="M1619.95,3088.6c61.5,9.6,102.2,10.7,102.2,10.7l122.2-688.7c-31.9-5.15-62.25-11.3-91.15-18.3
					l-0.05,0.05C1753.15,2392.35,1707.7,2578.05,1619.95,3088.6z"/>
			</g>
			<g>
				<path style="fill:#FFFFFF;" d="M1427.8,2843.95c-2.8,14-9.1,26.7-17.7,37.15c-8.55,10.5-19.55,18.85-32.05,24.25
					c-12.45,5.45-26.95,7.7-40.8,5.1c-13.85-2.5-26.25-10.15-34.1-19.85c-8-9.75-12.15-20.95-13.2-32.2c0-0.25,0.05-0.55,0.2-0.8
					c0.4-0.5,1.15-0.65,1.65-0.25c9.1,6.4,17.7,11.55,25.9,14.25c8.2,2.75,15.5,3,22,1.8c12.85-2.45,24.75-10.95,32.95-22
					c8.1-11.1,11.95-23.6,8.35-34.9c-1.65-5.8-5.35-11.45-10.7-16.6c-5.7-5.5-12.1-9.95-17.9-12.15c-5.85-2.35-11.05-2.8-16.8-1.5
					s-12.2,4.45-18.5,9.3c-12.75,9.6-24.5,24.3-34.75,40c-10.35,15.8-19.4,33-27.65,50.7c-4.15,8.85-8.05,17.85-11.75,26.9
					c-3.2,7.9-6.4,16.25-9.1,24c-12.6-9.65-24.85-19.85-36.7-30.7c0,0,0-0.1,0.05-0.3c1.3-3.25,2.6-6.55,3.9-9.85
					c3.9-9.8,8.1-19.5,12.5-29.15c8.9-19.2,18.95-38.1,30.85-56.4c12.1-18.15,25.75-36.2,45.5-51.3c9.85-7.45,21.85-14.1,36-17.25
					c7.05-1.55,14.55-2.1,21.95-1.45c7.4,0.65,14.55,2.5,21.1,5.1c13.2,5.25,23.55,13.15,32.5,21.6c9.4,8.9,17.8,20.3,22.8,33.85
					C1429.45,2814.75,1430.55,2830,1427.8,2843.95z"/>
			</g>
			<g>
				<path style="fill:#FFFFFF;" d="M1596.4,2931.15c0.5,21.7-4.35,40.8-10.1,58.9c-5.9,18.15-13.3,35.25-21.5,51.8
					c-5.65,11.25-11.45,22.05-17.8,32.85h-0.05c-12.95-2.9-26.25-6.2-39.9-9.85c7.95-12.8,15.6-26.8,22.35-40.55
					c7.5-15.25,14.3-30.8,19.4-46.45c5.1-15.55,8.65-31.55,8.25-45.45c-0.15-6.95-1.55-13.05-3.8-17.65
					c-2.25-4.65-5.4-7.9-10.2-10.65c-4.65-2.7-11.15-4.6-18.05-5.5c-6.4-0.85-12.25-0.25-17.1,1.75c-9.6,3.75-16,13.2-19.15,24.75
					c-3.05,11.6-2.35,24.35,3,34.4c2.7,5.1,6.9,9.9,13.25,13.95c6.3,4.15,14.5,7.15,23.8,9.85c0.25,0.1,0.45,0.25,0.6,0.45
					c0.3,0.45,0.15,1.1-0.3,1.4c-8.2,5.4-18.1,8.7-29.1,8.6c-10.9-0.05-22.85-4.3-32.1-12.35c-9.35-8-15.7-19.1-18.8-30.5
					c-3.15-11.5-3.5-23.5-1-35.05c2.4-11.55,7.6-22.8,15.6-32.3c8-9.5,18.95-17.05,30.9-20.95c11.95-3.95,24.3-4.45,35.45-2.95
					c10.65,1.5,21.65,4.2,32.45,10.35c5.35,3,10.5,6.85,15,11.55c4.45,4.65,8.2,10.1,11,15.7
					C1594.05,2908.6,1596.05,2920.4,1596.4,2931.15z"/>
			</g>
			<g style="opacity:0.3;">
				<path style="fill:#000072;" d="M1753.15,2924.5l-31,174.8c0,0-1-0.05-2.9-0.1c-0.4-0.05-0.8-0.05-1.25-0.05
					c-0.35-0.05-0.75-0.05-1.15-0.05c-0.6-0.05-1.3-0.1-2-0.15h-0.3c-0.5,0-1.05-0.05-1.6-0.1c-0.8,0-1.65-0.05-2.5-0.1
					c-1.35-0.1-2.85-0.2-4.4-0.3c-0.3,0-0.6-0.05-0.9-0.05c-1.1-0.1-2.25-0.2-3.45-0.25c-0.65-0.05-1.3-0.1-2-0.15
					c-1.35-0.1-2.8-0.25-4.3-0.35c-0.45-0.05-0.85-0.05-1.3-0.1c-2.25-0.2-4.6-0.4-7.05-0.6c-2.05-0.2-4.2-0.4-6.45-0.6
					c-1.75-0.2-3.55-0.35-5.4-0.55c-1.4-0.15-2.85-0.3-4.3-0.45c-2.55-0.3-5.2-0.55-7.9-0.85c-3.45-0.45-7.05-0.9-10.8-1.35
					c-3.3-0.4-6.7-0.85-10.2-1.35c-2.2-0.3-4.4-0.6-6.65-0.9c-2.45-0.35-4.95-0.7-7.5-1.1c-2.6-0.4-5.2-0.8-7.9-1.2
					c-2.75-0.45-5.55-0.9-8.35-1.35c-19.8-3.25-41.55-7.35-64.6-12.55c-7.15-1.6-14.4-3.3-21.75-5.15c-6-1.5-12.1-3.05-18.25-4.65
					c-10.9-2.9-22.05-6.1-33.3-9.55c-79.05-24-165.25-61.05-239.85-118.2c-12.6-9.65-24.85-19.85-36.7-30.7c0,0,0-0.05,0.05-0.2
					c0-0.05,0-0.05,0-0.1c1.45-8.8,37.6-227.8,98.5-342.9c0,0,10.65-23.35,30.25-56.4c32.05,18.85,64.5,36.05,93.75,50.75
					c32.55,16.35,34.55,62.05,3.5,81.05c-1.15,0.65-2.25,1.35-3.3,2.05c-59.4,38.3-51.2,128.1,13.15,157.3
					c46.3,21.05,89.8,35,119.25,43.2c8.65,2.45,7.85,14.9-1,16.3c-123.25,19.5-200.8,12.3-200.8,12.3
					C1524.2,2969,1753.15,2924.5,1753.15,2924.5z"/>
			</g>
			<g>
				<path style="fill:#000072;" d="M1722.146,3117.386c-0.161,0-0.322,0-0.483-0.005c-13.486-0.356-332.671-10.898-536.738-197.598
					c-4.502-4.116-6.626-10.22-5.654-16.24c1.509-9.321,37.539-229.414,100.205-348.315
					c6.226-13.506,95.283-202.324,233.413-264.121c4.961-2.227,10.664-2.1,15.532,0.356
					c96.899,48.789,204.165,82.866,318.818,101.289c4.79,0.767,9.072,3.428,11.885,7.383c2.808,3.955,3.916,8.872,3.066,13.652
					l-122.227,688.662C1738.426,3111.107,1730.896,3117.386,1722.146,3117.386z M1216.668,2899.633
					c169.419,149.106,425.283,176.143,490.454,180.693l116.231-654.883c-108.433-19.067-210.337-51.895-303.301-97.705
					c-123.506,60.977-207.026,241.167-207.871,243.018c-0.146,0.317-0.303,0.635-0.464,0.942
					C1258.885,2671.61,1224.412,2855.502,1216.668,2899.633z"/>
			</g>
			<g>
				<path style="fill:#000072;" d="M1637.786,3091.659l-35.684-6.133c86.841-505.337,133.027-695.63,133.481-697.495l35.166,8.613
					C1770.296,2398.5,1724.344,2587.933,1637.786,3091.659z"/>
			</g>
		</g>
		<g style="opacity:0.3;">
			<path style="fill:#000072;" d="M2749.55,2232.35c-2.75,4.1-5.6,8.2-8.5,12.2c-71.85,99.45-187.65,176.8-334.65,225.55
				c-70.45,23.35-148.05,40.15-231.4,49.6c-52.8,6.1-107.95,9.2-165,9.2c-155.15,0-295.9-22.95-415-65.15
				c9.85-44.45,24.9-89,46.4-132.85c0,0,74.3,61.4,358.6,61.4s358.6-61.4,358.6-61.4c3.95,8.05,7.7,16.15,11.2,24.2
				c104.1-38.1,181.05-84.45,231.2-120.4c0,0,0.05-0.05,0.1-0.15c47.05-33.7,70.5-58.3,70.5-58.3c14.6-30.6,27.75-61.4,40.4-91.5
				c31.25-74.1,59.75-143.7,100.6-194.95C2839.15,2020,2814.45,2136.05,2749.55,2232.35z"/>
		</g>
		<g>
			<g>
				<path style="fill:#FFFFFF;" d="M1366.826,1399.516c0,0-224.222,61.452-336.269,25.529c0,0-39.665,99.114-16.342,181.155
					c0,0,232.474-0.829,339.816-72.183L1366.826,1399.516z"/>
			</g>
			<g style="opacity:0.3;">
				<path style="fill:#000072;" d="M1053.255,1431.849c0.068-0.351,0.137-0.701,0.206-1.05c-8.036-1.546-15.704-3.446-22.903-5.754
					c0,0-39.666,99.114-16.342,181.155c0,0,232.474-0.828,339.816-72.183l3.347-35.186c-59.569,26.546-137.91,39.638-200.031,46.094
					C1093.554,1551.554,1041.01,1494.806,1053.255,1431.849z"/>
			</g>
			<g>
				<path style="fill:#000072;" d="M1014.217,1624.301c-8.091,0-15.195-5.366-17.412-13.149
					c-24.727-86.983,15.234-188.555,16.948-192.832c3.53-8.823,13.267-13.413,22.334-10.513
					c105.591,33.862,323.765-25.151,325.957-25.747c5.737-1.577,11.88-0.22,16.431,3.603c4.551,3.828,6.934,9.644,6.367,15.566
					l-12.793,134.502c-0.513,5.43-3.452,10.342-7.998,13.359c-110.591,73.516-340.054,75.176-349.77,75.21
					C1014.261,1624.301,1014.236,1624.301,1014.217,1624.301z M1042.127,1446.913c-8.667,27.334-24.053,87.065-13.691,140.874
					c50.112-1.548,219.482-10.718,308.418-64.316l9.517-100.098C1287.112,1437.597,1138.016,1468.617,1042.127,1446.913z"/>
			</g>
		</g>
		<g>
			<g>
				<path style="fill:#FFFFFF;" d="M1295.264,1488.42c0,0-153.946,174.219-267.369,205.53c0,0,21.096,104.652,85.544,160.519
					c0,0,194.053-128.017,244.784-246.507L1295.264,1488.42z"/>
			</g>
			<g style="opacity:0.3;">
				<path style="fill:#000072;" d="M1335.934,1565.641c-40.078,64.367-113.003,127.839-165.498,168.692
					c-37.866,29.469-93.048,17.185-114.99-25.486c-3.627-7.054-6.907-14.056-9.861-20.857c-5.978,2.302-11.897,4.361-17.69,5.96
					c0,0,21.097,104.652,85.544,160.519c0,0,194.053-128.017,244.784-246.507L1335.934,1565.641z"/>
			</g>
			<g>
				<path style="fill:#000072;" d="M1113.445,1872.572c-4.253,0-8.482-1.494-11.86-4.424
					c-68.33-59.233-90.522-166.104-91.436-170.62c-1.88-9.316,3.769-18.501,12.93-21.025
					c106.997-29.536,257.114-198.364,258.618-200.068c3.931-4.453,9.776-6.665,15.723-5.986c5.903,0.713,11.084,4.277,13.857,9.536
					l62.964,119.541c2.544,4.829,2.773,10.547,0.625,15.562c-52.271,122.08-243.35,249.146-251.46,254.492
					C1120.369,1871.586,1116.897,1872.572,1113.445,1872.572z M1049.549,1705.912c7.72,27.617,27.563,86.021,65.708,125.366
					c41.074-28.74,177.759-129.175,222.817-222.729l-46.855-88.965C1249.422,1563.944,1141.673,1671.552,1049.549,1705.912z"/>
			</g>
		</g>
		<g>
			<g>
				<g>
					<g>
						<path style="fill:#FA9B27;" d="M1273.204,1562.363c0,0-96.753-315.389,27.814-599.112
							c23.673-53.92,81.154-85.147,138.999-74.113c77.054,14.697,191.313,56.599,309.613,171.555
							C1749.629,1060.693,1420.116,1143.853,1273.204,1562.363z"/>
					</g>
					<g style="opacity:0.7;">
						<path style="fill:#FFFFFF;" d="M1328.373,983.706c19.534-55.553,74.492-91.032,133.005-84.398
							c13.58,1.539,28.373,3.841,44.173,7.111c-23.887-8.022-45.921-13.54-65.535-17.281
							c-57.844-11.033-115.325,20.194-138.999,74.114c-124.567,283.723-27.814,599.112-27.814,599.112
							c11.945-34.029,25.115-65.803,39.199-95.533C1286.554,1350.848,1264.819,1164.452,1328.373,983.706z"/>
					</g>
					<g>
						<path style="fill:#000072;" d="M1273.211,1580.463c-0.122,0-0.244,0-0.366-0.005c-7.817-0.156-14.649-5.313-16.943-12.788
							c-4.033-13.14-97.285-325.107,28.545-611.694c27.412-62.451,92.808-97.261,158.965-84.614
							c77.964,14.868,196.567,57.539,318.833,176.348c4.707,4.575,6.572,11.333,4.873,17.671
							c-1.699,6.338-6.694,11.26-13.057,12.861c-0.781,0.2-81.382,21.304-178.359,92.041
							c-89.331,65.161-211.362,187.119-285.415,398.076C1287.737,1575.619,1280.882,1580.463,1273.211,1580.463z M1416.458,905.004
							c-42.168,0-81.089,25.029-98.867,65.522c-89.883,204.722-61.099,429.214-40.4,530.947
							c78.198-187.217,192.773-299.194,278.687-361.538c66.65-48.364,125.269-74.404,159.033-86.934
							c-107.793-96.919-209.844-133.027-278.286-146.084C1429.871,905.629,1423.118,905.004,1416.458,905.004z"/>
					</g>
				</g>
				<g>
					<g>
						<path style="fill:#FF699F;" d="M1345.937,1459.306c0,0-67.228-219.145,19.326-416.288
							c16.449-37.466,56.389-59.163,96.582-51.497c53.54,10.212,132.933,39.327,215.132,119.204
							C1676.978,1110.725,1448.018,1168.508,1345.937,1459.306z"/>
					</g>
					<g style="opacity:0.3;">
						<path style="fill:#000072;" d="M1401.466,1110.25c16.449-37.466,56.389-59.164,96.582-51.497
							c38.506,7.345,90.386,24.469,147.064,63.222c19.797-8.194,31.866-11.25,31.866-11.25
							c-82.199-79.877-161.592-108.992-215.132-119.204c-40.193-7.666-80.133,14.031-96.582,51.497
							c-86.555,197.143-19.327,416.288-19.327,416.288c4.985-14.201,10.281-27.829,15.83-40.939
							C1352.76,1336.583,1353.274,1220.016,1401.466,1110.25z"/>
					</g>
					<g>
						<path style="fill:#000072;" d="M1345.936,1472.235c-0.083,0-0.171,0-0.259-0.005c-5.581-0.108-10.464-3.794-12.1-9.131
							c-2.803-9.136-67.632-226.03,19.844-425.278c19.121-43.545,64.727-67.798,110.845-58.999
							c54.219,10.337,136.699,40.01,221.719,122.632c3.364,3.267,4.693,8.096,3.482,12.622c-1.216,4.526-4.785,8.042-9.326,9.184
							c-2.207,0.566-223.608,60.039-322.007,340.327C1356.312,1468.773,1351.414,1472.235,1345.936,1472.235z M1445.476,1002.899
							c-29.16,0-56.079,17.31-68.374,45.317c-62.065,141.362-42.646,296.323-28.296,367.52
							c89.497-214.258,245.796-289.409,303.291-310.557c-74.648-66.943-145.278-91.919-192.676-100.957
							C1454.749,1003.334,1450.086,1002.899,1445.476,1002.899z"/>
					</g>
				</g>
			</g>
			<g>
				<g>
					<g>
						<path style="fill:#FA9B27;" d="M2726.796,1562.363c0,0,96.753-315.389-27.814-599.112
							c-23.673-53.92-81.154-85.147-138.999-74.113c-77.053,14.697-191.313,56.599-309.613,171.555
							C2250.371,1060.693,2579.884,1143.853,2726.796,1562.363z"/>
					</g>
					<g style="opacity:0.7;">
						<path style="fill:#FFFFFF;" d="M2671.627,983.706c-19.534-55.553-74.492-91.032-133.005-84.398
							c-13.58,1.539-28.373,3.841-44.173,7.111c23.887-8.022,45.921-13.54,65.534-17.281
							c57.844-11.033,115.325,20.194,138.999,74.114c124.567,283.723,27.814,599.112,27.814,599.112
							c-11.945-34.029-25.115-65.803-39.199-95.533C2713.446,1350.848,2735.181,1164.452,2671.627,983.706z"/>
					</g>
					<g>
						<path style="fill:#000072;" d="M2726.79,1580.463c-7.671,0-14.526-4.844-17.075-12.104
							c-74.053-210.957-196.084-332.915-285.415-398.076c-96.978-70.737-177.578-91.841-178.384-92.046
							c-6.348-1.621-11.338-6.548-13.027-12.876c-1.685-6.333,0.166-13.086,4.868-17.651
							c122.271-118.813,240.869-161.479,318.833-176.348c66.187-12.642,131.553,22.163,158.965,84.614
							c125.825,286.587,32.578,598.555,28.545,611.694c-2.295,7.476-9.126,12.632-16.943,12.788
							C2727.034,1580.463,2726.912,1580.463,2726.79,1580.463z M2285.091,1053.002c33.765,12.529,92.383,38.569,159.033,86.934
							c85.913,62.344,200.488,174.321,278.687,361.538c20.698-101.738,49.478-326.226-40.4-530.947
							c-20.586-46.89-69.517-73.062-119.033-63.608C2494.939,919.974,2392.884,956.083,2285.091,1053.002z"/>
					</g>
				</g>
				<g>
					<g>
						<path style="fill:#FF699F;" d="M2654.063,1459.306c0,0,67.228-219.145-19.326-416.288
							c-16.449-37.466-56.389-59.163-96.582-51.497c-53.54,10.212-132.933,39.327-215.132,119.204
							C2323.022,1110.725,2551.982,1168.508,2654.063,1459.306z"/>
					</g>
					<g style="opacity:0.3;">
						<path style="fill:#000072;" d="M2598.534,1110.25c-16.449-37.466-56.389-59.164-96.582-51.497
							c-38.506,7.345-90.386,24.469-147.064,63.222c-19.796-8.194-31.865-11.25-31.865-11.25
							c82.199-79.877,161.592-108.992,215.132-119.204c40.193-7.666,80.133,14.031,96.582,51.497
							c86.555,197.143,19.327,416.288,19.327,416.288c-4.985-14.201-10.281-27.829-15.83-40.939
							C2647.24,1336.583,2646.726,1220.016,2598.534,1110.25z"/>
					</g>
					<g>
						<path style="fill:#000072;" d="M2654.061,1472.235c-5.483,0-10.376-3.457-12.197-8.647
							c-98.394-280.288-319.8-339.761-322.021-340.327c-4.536-1.162-8.101-4.678-9.307-9.199s0.117-9.346,3.477-12.607
							c85.029-82.627,167.505-112.295,221.719-122.632c46.182-8.828,91.733,15.459,110.845,58.999
							c87.48,199.248,22.646,416.143,19.844,425.278c-1.636,5.337-6.519,9.023-12.1,9.131
							C2654.231,1472.235,2654.144,1472.235,2654.061,1472.235z M2347.898,1105.179c57.495,21.147,213.799,96.299,303.291,310.562
							c14.351-71.201,33.774-226.162-28.296-367.529c-14.233-32.436-48.101-50.532-82.319-43.989
							C2493.182,1013.26,2422.552,1038.236,2347.898,1105.179z"/>
					</g>
				</g>
			</g>
			<g>
				<g>
					<path style="fill:#FA9B27;" d="M2000,2463.921c-561.997,0-934.349-300.899-776.798-729.236
						c4.019-10.9,8.367-21.854,13.047-32.919c5.12-12.001,8.753-24.552,11.12-37.379c19.762-108.391,147.532-639.01,752.631-639.01
						s732.869,530.619,752.632,639.01c2.367,12.827,6,25.378,11.12,37.379C2953.176,2147.553,2576.309,2463.921,2000,2463.921z"/>
				</g>
				<g>
					<path style="fill:#FFFFFF;" d="M2776.798,1734.685c0,0-87.418-7.707-157.275,119.677
						c-54.884,99.969-219.536,100.575-308.275,39.195c-88.684-61.324-198.537-94.936-311.002-94.936
						c-112.465,0-222.809,33.612-311.494,94.936c-88.739,61.38-253.391,60.774-308.275-39.195
						c-69.857-127.383-157.275-119.677-157.275-119.677c-157.551,428.337,214.802,729.236,776.798,729.236
						S2934.349,2163.022,2776.798,1734.685z"/>
				</g>
				<g style="opacity:0.3;">
					<path style="fill:#000072;" d="M2780.48,1745.018c66.295,362.664-279.293,609.367-780.48,609.367
						c-500.923,0-846.457-246.476-780.603-608.835c-147.31,422.539,223.38,718.37,780.603,718.37
						C2557.486,2463.921,2928.311,2167.874,2780.48,1745.018z"/>
				</g>
				<g style="opacity:0.3;">
					<path style="fill:#000072;" d="M2311.752,1915.993c0,0-30.973,72.988-121.57,67.131c-35.083-2.268-60.393-11.108-78.607-22.043
						c-6.934-4.163-7.521-14.155-1.026-18.974c37.041-27.481,58.988-65.692,48.335-99.369
						c-19.29-60.982-158.884-57.559-158.884-57.559s-139.594-3.422-158.884,57.559c-10.673,33.74,11.374,72.032,48.54,99.524
						c6.516,4.82,5.929,14.844-1.032,18.997c-18.193,10.854-43.421,19.61-78.314,21.866c-90.597,5.857-121.57-67.131-121.57-67.131
						s-39.632,74.165,21.182,135.986c5.176,5.261,9.23,11.486,11.619,18.468c17.033,49.77,98.03,254.324,278.704,254.324
						c180.674,0,261.671-204.554,278.704-254.324c2.39-6.983,6.444-13.207,11.619-18.468
						C2351.384,1990.158,2311.752,1915.993,2311.752,1915.993z"/>
				</g>
				<g style="opacity:0.7;">
					<path style="fill:#FFFFFF;" d="M2763.752,1701.765c-5.12-12.001-8.753-24.552-11.12-37.379
						c-19.763-108.391-147.532-639.01-752.632-639.01s-732.869,530.619-752.631,639.01c-2.367,12.827-6.001,25.378-11.12,37.379
						c-4.679,11.065-9.028,22.02-13.046,32.919c-28.207,76.686-39.343,149.258-35.533,216.779
						c2.884-52.457,14.397-107.599,35.533-165.062c4.018-10.9,8.367-21.854,13.046-32.919c5.12-12.001,8.753-24.552,11.12-37.379
						c16.522-90.618,108.61-476.277,491.918-600.341c0.016,0.105-0.007,0.214,0.011,0.318c3.227,18.44,46.742,26.231,97.195,17.402
						c50.453-8.829,88.736-30.934,85.51-49.373c-0.233-1.329-0.731-2.585-1.369-3.801c25.507-2.093,51.932-3.215,79.367-3.215
						c605.1,0,732.869,530.619,752.632,639.01c2.367,12.827,6,25.378,11.12,37.379c29.41,69.214,45.148,135.3,48.629,197.575
						C2816.651,1874.061,2801.452,1790.488,2763.752,1701.765z"/>
				</g>
				<g>
					<path style="fill:#000072;" d="M1743.821,1759.811l-9.214-9.058c-3.333-3.341-6.902-6.552-10.41-9.836
						c-7.124-6.456-14.426-12.81-22.009-18.801c-15.188-11.923-31.111-23.024-48.352-31.869c-8.652-4.28-17.485-8.407-26.68-11.682
						c-9.214-3.094-18.623-6.2-28.367-8.097c-19.451-4.292-39.905-5.498-61.138-4.812l-0.32,0.01
						c-5.767,0.187-10.593-4.337-10.779-10.104c-0.142-4.407,2.49-8.271,6.301-9.928c21.221-9.159,44.656-14.683,68.726-15.859
						c24.067-1.162,48.665,1.88,72.134,8.715c23.503,6.758,46.013,16.982,66.406,30.238c10.198,6.632,19.939,13.933,29.065,22.014
						c4.624,3.978,8.975,8.268,13.296,12.694c2.146,2.222,4.214,4.54,6.313,6.927c1.052,1.163,2.065,2.45,3.096,3.708l3.467,4.414
						c11.235,14.305,8.745,35.009-5.559,46.244c-13.181,10.35-31.797,9.05-43.428-2.408L1743.821,1759.811z"/>
				</g>
				<g>
					<path style="fill:#000072;" d="M2204.644,1718.485l3.467-4.414c1.03-1.259,2.043-2.545,3.096-3.708
						c2.1-2.388,4.167-4.706,6.313-6.927c4.321-4.426,8.672-8.716,13.296-12.694c9.126-8.081,18.867-15.382,29.065-22.014
						c20.393-13.256,42.903-23.48,66.406-30.238c23.469-6.835,48.066-9.877,72.134-8.715c24.07,1.177,47.505,6.7,68.726,15.859
						c5.295,2.286,7.737,8.433,5.452,13.73c-1.748,4.048-5.75,6.428-9.905,6.305l-0.344-0.013
						c-21.233-0.686-41.687,0.52-61.138,4.812c-9.744,1.897-19.153,5.002-28.367,8.097c-9.194,3.275-18.027,7.402-26.68,11.682
						c-17.241,8.845-33.164,19.946-48.352,31.869c-7.583,5.991-14.885,12.345-22.009,18.801c-3.508,3.285-7.078,6.495-10.41,9.836
						l-9.214,9.058l-2.546,2.504c-12.974,12.75-33.826,12.571-46.575-0.4C2195.308,1749.961,2194.543,1731.316,2204.644,1718.485z"
						/>
				</g>
				<g>
					<path style="fill:#000072;" d="M2000,1959.049c85.916,0,168.883-71.957,150.599-129.759
						c-18.284-57.801-150.599-54.557-150.599-54.557s-132.314-3.244-150.599,54.557
						C1831.117,1887.092,1914.084,1959.049,2000,1959.049z"/>
				</g>
				<g>
					<path style="fill:#000072;" d="M2019.163,1955.929c-1.318,3.271-2.219,5.209-3.376,7.653c-1.101,2.323-2.234,4.567-3.411,6.785
						c-2.334,4.446-4.829,8.741-7.517,12.921c-5.386,8.335-11.262,16.354-17.815,23.859c-13.123,14.941-28.445,28.387-46.001,38.571
						c-17.361,10.42-36.75,17.716-56.545,21.378c-19.797,3.693-39.932,4.38-59.331,1.987c-19.368-2.374-38.125-6.576-56.624-13.73
						c-18.32-7.17-36.003-17.596-50.698-31.604c-14.758-13.824-26.392-31.489-31.467-50.728
						c-5.107-19.082-5.308-39.246,1.873-57.101c0.156-0.386,0.596-0.573,0.981-0.417c0.222,0.089,0.381,0.275,0.442,0.49
						l0.022,0.076c5.073,17.849,11.477,33.689,19.458,47.809c8.103,13.992,17.595,26.387,29.756,36.079
						c12.075,9.716,26.379,16.737,41.748,21.321c15.215,4.735,31.775,7.573,47.971,8.53c16.189,0.872,32.124-0.244,47.349-3.673
						c7.595-1.758,15.017-4.06,22.141-7.054c7.195-2.808,14.104-6.312,20.686-10.387c13.196-8.073,25.229-18.307,35.74-30.128
						c5.254-5.907,10.225-12.144,14.69-18.715c2.197-3.301,4.419-6.602,6.406-9.977c1.008-1.678,1.98-3.375,2.883-5.046
						c0.857-1.543,1.895-3.634,2.314-4.479l0.667-1.342c5.081-10.217,17.48-14.381,27.698-9.301
						C2018.909,1934.531,2023.12,1946.039,2019.163,1955.929z"/>
				</g>
				<g>
					<path style="fill:#000072;" d="M2019.163,1940.347c0.42,0.845,1.458,2.936,2.314,4.479c0.903,1.671,1.875,3.368,2.883,5.046
						c1.987,3.375,4.209,6.676,6.406,9.977c4.465,6.571,9.436,12.808,14.69,18.715c10.51,11.821,22.544,22.056,35.74,30.128
						c6.582,4.075,13.491,7.579,20.686,10.387c7.124,2.994,14.546,5.297,22.141,7.054c15.225,3.429,31.16,4.545,47.349,3.673
						c16.196-0.957,32.756-3.795,47.971-8.53c15.369-4.584,29.673-11.605,41.748-21.321c12.161-9.692,21.653-22.087,29.756-36.079
						c7.981-14.12,14.385-29.96,19.458-47.809l0.02-0.072c0.115-0.4,0.532-0.632,0.933-0.519c0.232,0.066,0.408,0.237,0.493,0.443
						c7.18,17.855,6.98,38.019,1.873,57.101c-5.076,19.238-16.709,36.903-31.467,50.728c-14.695,14.008-32.378,24.434-50.698,31.604
						c-18.499,7.155-37.256,11.356-56.624,13.73c-19.399,2.393-39.534,1.705-59.331-1.987
						c-19.795-3.662-39.185-10.958-56.545-21.378c-17.556-10.183-32.878-23.629-46.001-38.571
						c-6.553-7.505-12.429-15.524-17.815-23.859c-2.688-4.18-5.183-8.475-7.517-12.921c-1.177-2.218-2.31-4.462-3.411-6.785
						c-1.157-2.444-2.058-4.381-3.376-7.653c-4.268-10.582,0.852-22.62,11.433-26.886c10.054-4.054,21.421,0.364,26.191,9.89
						L2019.163,1940.347z"/>
				</g>
				<g>
					<path style="fill:#000072;" d="M2233.849,2035.143c0,0-50.59,272.493-233.849,272.493c-79.546,0-134.1-51.361-170.377-109.493
						c-47.287-75.748-63.472-163-63.472-163s142.632,62.536,233.849-76.078C2091.216,2097.679,2233.849,2035.143,2233.849,2035.143z
						"/>
				</g>
				<g>
					<path style="fill:#FF3E96;" d="M2000,2104.725c-137.843,0-170.377,93.418-170.377,93.418
						c36.277,58.132,90.831,109.493,170.377,109.493s134.1-51.361,170.377-109.493
						C2170.377,2198.143,2137.843,2104.725,2000,2104.725z"/>
				</g>
				<g style="opacity:0.3;">
					<path style="fill:#000072;" d="M2000,2225.401c-60.983,0-109.217-26.287-147.006-63.672
						c-17.426,19.457-23.371,36.414-23.371,36.414c36.278,58.132,90.831,109.493,170.377,109.493s134.1-51.361,170.377-109.493
						c0,0-5.945-16.957-23.372-36.414C2109.217,2199.115,2060.983,2225.401,2000,2225.401z"/>
				</g>
				<g>
					<path style="fill:#000072;" d="M1999.998,2325.731c-196.025,0-249.487-275.566-251.67-287.3
						c-1.226-6.592,1.294-13.32,6.548-17.485c5.249-4.165,12.373-5.098,18.516-2.397c5.229,2.256,130.034,54.321,211.484-69.448
						c3.35-5.088,9.033-8.149,15.122-8.149c6.089,0,11.772,3.061,15.122,8.149c81.45,123.755,206.26,71.704,211.533,69.429
						c6.143-2.651,13.271-1.704,18.486,2.456c5.229,4.17,7.754,10.874,6.533,17.446
						C2249.49,2050.165,2196.028,2325.731,1999.998,2325.731z M1791.131,2061.361c18.794,67.69,77.251,228.169,208.867,228.169
						c131.875,0,190.186-160.493,208.906-228.179c-47.72,10.396-139.009,15.264-208.906-71.562
						C1930.135,2076.581,1838.86,2071.742,1791.131,2061.361z"/>
				</g>
				<g>
					<ellipse style="fill:#FFFFFF;" cx="2000.246" cy="1811.81" rx="58.035" ry="13.19"/>
				</g>
				<g>
					
						<ellipse transform="matrix(0.5795 -0.815 0.815 0.5795 -519.8158 2090.832)" style="fill:#FFFFFF;" cx="1766.127" cy="1549.122" rx="44.644" ry="75.898"/>
				</g>
				<g>
					<path style="fill:#FFFFFF;" d="M2172.017,1593.103c14.288,20.095,53.564,16.694,87.726-7.596s50.274-60.27,35.986-80.365
						c-14.287-20.094-48.392-16.694-82.554,7.596C2179.013,1537.027,2157.729,1573.008,2172.017,1593.103z"/>
				</g>
				<g>
					<path style="fill:#000072;" d="M1999.998,2482.03c-346.353,0-629.292-115.122-756.865-307.954
						c-90.527-136.841-98.667-302.607-23.54-479.39c4.463-10.498,7.813-21.777,9.956-33.525
						c19.927-109.194,150.718-653.887,770.449-653.887c619.707,0,750.522,544.692,770.454,653.882
						c2.144,11.748,5.488,23.027,9.951,33.535c75.127,176.777,66.992,342.544-23.535,479.385
						C2629.295,2366.908,2346.355,2482.03,1999.998,2482.03z M1999.998,1043.475c-590.996,0-715.815,519.951-734.834,624.18
						c-2.622,14.375-6.743,28.237-12.251,41.191c-70.151,165.068-63.091,319.033,20.415,445.254
						c120.85,182.671,392.5,291.729,726.67,291.729s605.825-109.058,726.675-291.729c83.506-126.221,90.562-280.19,20.41-445.254
						c-5.503-12.964-9.624-26.821-12.246-41.191C2715.813,1563.427,2590.97,1043.475,1999.998,1043.475z"/>
				</g>
			</g>
		</g>
		<g>
			<g>
				
					<ellipse transform="matrix(0.7071 -0.7071 0.7071 0.7071 -1186.7264 1796.7747)" style="fill:#FFFFFF;" cx="1575.536" cy="2330.893" rx="86.786" ry="86.786"/>
			</g>
			<g>
				<path style="fill:#000072;" d="M1575.535,2435.78c-57.837,0-104.888-47.051-104.888-104.888s47.051-104.888,104.888-104.888
					c57.837,0,104.888,47.051,104.888,104.888S1633.372,2435.78,1575.535,2435.78z M1575.535,2262.206
					c-37.876,0-68.687,30.811-68.687,68.687s30.81,68.687,68.687,68.687c37.876,0,68.686-30.811,68.686-68.687
					S1613.411,2262.206,1575.535,2262.206z"/>
			</g>
		</g>
		<g>
			<g>
				<path style="fill:#FA9B27;" d="M1626.45,2773.55c-56.55,27.7-105.7,43.6-148.35,51.1c-63.6,11.25-112.65,3.85-149.8-11.1
					c-64-25.75-106.95-86.75-112.65-155.5c-19.5-233.85,207.9-336.6,207.9-336.6c16.35,10.7,72.4,40.2,72.4,40.2s0,0,0.05-0.05
					C1829.6,2133.4,1937.15,2621.45,1626.45,2773.55z"/>
			</g>
			<g>
				<path style="fill:#FFFFFF;" d="M1638.537,2785.668c-56.55,27.7-105.7,43.6-148.35,51.1c-224.65-75.7-65.95-297.5-65.95-297.5
					c30-141.45,83.8-165.5,83.8-165.5s0,0,0.05-0.05C1841.687,2145.519,1949.237,2633.569,1638.537,2785.668z"/>
			</g>
			<g style="opacity:0.3;">
				<path style="fill:#000072;" d="M1641.45,2703.55c-56.55,27.7-105.7,43.6-148.35,51.1c-63.6,11.25-112.65,3.85-149.8-11.1
					c-64-25.75-106.95-86.75-112.65-155.5c-1.696-20.336-1.487-39.658,0.239-58.03c-12.784,37.286-19.255,79.871-15.239,128.03
					c5.7,68.75,48.65,129.75,112.65,155.5c37.15,14.95,86.2,22.35,149.8,11.1c42.65-7.5,91.8-23.4,148.35-51.1
					c116.763-57.16,174.444-161.764,183.269-257.97C1784.729,2589.295,1730.166,2660.12,1641.45,2703.55z"/>
			</g>
			<g>
				<path style="fill:#000072;" d="M1419.261,2848.373c-35.215,0-67.822-6.006-97.715-18.032
					c-68.97-27.754-117.627-94.795-123.955-170.791c-8.423-101.055,26.787-194.502,101.816-270.239
					c56.123-56.646,114.214-83.262,116.66-84.365c5.63-2.544,12.178-2.046,17.354,1.338c11.538,7.539,44.937,25.508,61.475,34.316
					c90.41-59.053,175.039-72.554,239.199-37.896c60.249,32.549,96.606,106.401,94.878,192.734
					c-1.943,97.207-54.082,225.596-194.585,294.39C1554.759,2828.822,1482.781,2848.373,1419.261,2848.373z M1422.649,2342.123
					c-17.314,9.15-58.818,33.35-98.369,73.525c-67.715,68.784-98.203,149.834-90.615,240.894
					c5.205,62.485,45.005,117.524,101.396,140.215c73.892,29.731,169.238,16.465,283.408-39.438
					c125.879-61.641,172.578-176.069,174.307-262.603c1.455-72.715-27.627-134.082-75.893-160.161
					c-53.779-29.053-128.608-14.121-210.688,42.041c-5.552,3.794-12.734,4.204-18.657,1.079
					C1485.54,2376.625,1444.759,2355.135,1422.649,2342.123z"/>
			</g>
			<g>
				<path style="fill:#000072;" d="M1506.201,2376.589c-0.491,0.394-2.463,2.017-3.811,3.289c-1.472,1.289-3.013,2.872-4.536,4.277
					c-2.986,3.065-6.001,6.188-8.782,9.646c-5.688,6.732-10.996,14.061-16.016,21.626c-10.017,15.219-18.311,31.938-25.547,49.264
					l-5.298,13.118l-4.551,13.481l-2.39,6.742l-1.978,6.885c-1.282,4.604-2.756,9.183-4.172,13.793
					c-2.546,9.281-4.839,18.687-7.585,28.097c-2.117,9.506-4.453,19.054-7.227,28.679l-0.032,0.115
					c-0.337,1.168-1.555,1.842-2.722,1.505c-0.884-0.254-1.484-1.016-1.58-1.877c-1.074-9.934-1.736-19.95-2.134-30.001
					c0.017-5.011,0.168-10.026,0.327-15.055c0.186-5.028,0.198-10.094,0.767-15.1c1.946-20.076,5.198-40.217,11.069-59.911
					c5.686-19.707,13.159-39.186,23.481-57.595c5.378-9.078,10.916-18.169,17.82-26.52c3.293-4.259,6.985-8.322,10.771-12.355
					c2.039-1.97,3.843-3.999,6.111-5.891c2.302-2.01,4.065-3.582,7.546-6.073c8.113-5.806,19.395-3.936,25.2,4.177
					c5.593,7.817,4.06,18.579-3.32,24.546L1506.201,2376.589z"/>
			</g>
			<g>
				<path style="fill:#000072;" d="M1611.506,2317.526c-2.456,9.456-5.667,19.088-8.918,28.539
					c-3.323,9.474-6.738,18.929-10.454,28.325c-3.523,9.449-7.363,18.82-11.489,28.184c-4.265,9.34-8.481,18.704-13.94,28.026
					l-0.017,0.028c-0.728,1.244-2.324,1.661-3.569,0.934c-0.684-0.402-1.121-1.079-1.25-1.803
					c-1.87-10.703-2.122-21.296-1.934-31.809c0.364-10.477,1.233-20.902,2.842-31.139c1.382-10.299,3.313-20.474,5.593-30.557
					c2.366-10.104,4.973-19.967,8.701-29.894c3.516-9.368,13.962-14.111,23.33-10.594c8.738,3.281,13.452,12.59,11.194,21.431
					L1611.506,2317.526z"/>
			</g>
			<g>
				<path style="fill:#000072;" d="M1793.901,2372.162c-2.339,9.138-5.554,18.198-8.955,27.092
					c-3.389,8.922-7.151,17.726-11.038,26.488c-3.855,8.768-8.149,17.416-12.561,26.038c-4.446,8.623-9.187,17.147-14.648,25.699
					l-0.024,0.039c-1.04,1.626-3.198,2.103-4.827,1.064c-0.898-0.575-1.45-1.509-1.582-2.491
					c-1.348-10.272-1.172-20.386-0.474-30.327c0.732-9.948,2.012-19.746,3.821-29.392c1.785-9.652,3.936-19.187,6.567-28.568
					c2.629-9.404,5.559-18.607,9.573-27.657c4.063-9.167,14.79-13.304,23.958-9.24c8.228,3.647,12.402,12.661,10.234,21.099
					L1793.901,2372.162z"/>
			</g>
		</g>
		<g>
			<g>
				<path style="fill:#08B9FF;" d="M1495.95,2361.65c0,0-39.5,25.8-63.4,91.1c-5.7,15.35-10.5,32.9-13.7,52.85
					c0,0-82.8-41.7-183.25-5.5c0,0,8.85-31.65,32.65-69.5c26.85-42.6,72.65-93,146.3-114.95
					C1414.55,2315.65,1442.55,2338.05,1495.95,2361.65z"/>
			</g>
			<g>
				<path style="fill:#FFFFFF;" d="M1432.55,2452.75c-5.7,15.35-10.5,32.9-13.7,52.85c0,0-82.8-41.7-183.25-5.5
					c0,0,8.85-31.65,32.65-69.5c0.05,0,0.05,0,0.05,0s89.5-23.7,164.2,22.1C1432.5,2452.7,1432.5,2452.7,1432.55,2452.75z"/>
			</g>
			<g style="opacity:0.3;">
				<path style="fill:#000072;" d="M1414.55,2315.65c-19.223,5.729-36.506,13.428-52.093,22.389
					c8.634,5.509,20.327,12.452,35.014,20.017c12.745,6.564,15.779,23.35,6.26,34.07c-12.953,14.587-29.07,37.534-41.181,70.624
					c-2.876,7.745-5.518,16.058-7.846,24.948c39.146,5.345,64.146,17.902,64.146,17.902c3.2-19.95,8-37.5,13.7-52.85
					c23.9-65.3,63.4-91.1,63.4-91.1C1442.55,2338.05,1414.55,2315.65,1414.55,2315.65z"/>
			</g>
			<g>
				<path style="fill:#000072;" d="M1423.377,2467.611c-67.163-41.172-149.814-20.317-150.649-20.103l-8.921-33.843
					c3.95-1.05,97.69-25.039,177.861,24.102L1423.377,2467.611z"/>
			</g>
			<g>
				<path style="fill:#000072;" d="M1418.841,2523.715c-2.774,0-5.547-0.635-8.096-1.914c-0.854-0.415-77.627-37.583-168.989-4.678
					c-6.382,2.29-13.496,0.84-18.452-3.77c-4.961-4.609-6.934-11.602-5.117-18.125c1.738-6.23,44.258-153.184,191.201-196.909
					c5.674-1.685,11.831-0.498,16.46,3.208c0.244,0.19,27.207,21.372,77.407,43.579c6.065,2.681,10.176,8.467,10.718,15.078
					c0.537,6.611-2.583,12.988-8.13,16.621c-2.104,1.416-53.887,37.231-69.131,131.694c-0.923,5.693-4.502,10.61-9.639,13.237
					C1424.485,2523.055,1421.663,2523.715,1418.841,2523.715z M1320.296,2467.167c36.387,0,66.191,7.363,84.99,13.633
					c13.467-57.69,39.419-94.229,58.296-114.399c-25.327-12.744-42.896-24.121-52.305-30.693
					c-82.534,28.105-126.001,96.304-145.361,137.046C1285.154,2468.749,1303.436,2467.167,1320.296,2467.167z"/>
			</g>
		</g>
		<g>
			<g>
				<path style="fill:#FFFFFF;" d="M2000,1160.806c555.827,0,679.135,243.154,679.135,243.154
					c47.175,115.053,60.404,202.241,60.404,202.241S2607.612,1350.695,2000,1350.695S1260.461,1606.2,1260.461,1606.2
					s13.229-87.187,60.404-202.241C1320.864,1403.959,1444.172,1160.806,2000,1160.806z"/>
			</g>
			<g>
				<circle style="fill:#FF3372;" cx="2000" cy="1255.179" r="58.259"/>
			</g>
			<g>
				<path style="fill:#000072;" d="M2739.539,1624.306c-6.616,0-12.905-3.648-16.084-9.8
					c-0.283-0.537-33.472-61.753-138.184-122.305c-97.358-56.294-277.93-123.403-585.273-123.403
					c-589.766,0-722.183,243.252-723.452,245.708c-4.063,7.876-13.223,11.655-21.67,8.911c-8.428-2.734-13.638-11.167-12.309-19.932
					c0.552-3.647,14.097-90.664,61.548-206.392c0.186-0.449,0.386-0.889,0.605-1.323c1.352-2.671,34.355-66.123,137.896-128.867
					c93.491-56.66,266.084-124.199,557.383-124.199c291.304,0,463.896,67.539,557.388,124.199
					c103.535,62.744,136.538,126.196,137.891,128.867c0.22,0.435,0.42,0.874,0.605,1.323
					c47.456,115.728,61.001,202.744,61.553,206.392c1.328,8.765-3.882,17.197-12.31,19.932
					C2743.279,1624.017,2741.395,1624.306,2739.539,1624.306z M1999.998,1332.597c317.935,0,505.459,70.825,606.782,130.239
					c43.442,25.474,75.347,51.06,98.218,73.008c-9.17-33.555-22.764-76.494-42.261-124.165
					c-3.13-5.62-35.557-60.918-127.119-115.625c-89.448-53.442-254.98-117.148-535.62-117.148
					c-526.45,0-656.094,220.708-662.725,232.749c-19.502,47.676-33.101,90.63-42.271,124.189
					c22.866-21.948,54.771-47.534,98.218-73.008C1494.544,1403.422,1682.063,1332.597,1999.998,1332.597z"/>
			</g>
		</g>
	</g>
</g>
</svg>
